<svg xmlns="http://www.w3.org/2000/svg" xmlns:xlink="http://www.w3.org/1999/xlink" width="254" height="52" viewBox="0 0 254 52"><path fill="#894E66" d="M88.8 49.6c-.9 0-1.3-.2-1.6-.4V52h-1.3v-7.7l1.2-.2v.7c.3-.4 1-.7 1.7-.7 1.1 0 2.2.9 2.2 2.6.1 1.6-.7 2.9-2.2 2.9m-.5-5c-.6 0-1.1.5-1.1 1.1v2.7c.2.4.8.8 1.1.8 1 0 1.5-.9 1.5-2.2 0-1.6-.6-2.4-1.5-2.4M97.4 49.4c-.3.8-.8 1.5-1.4 1.8-.4.2-1.1.3-1.7.3l-.1-.7.8.1.9-.2c.5-.2.8-1 1-1.5l-2.6-5h1.5l1.7 3.6 1.4-3.6h.7l-2.2 5.2zM105.5 49.6c-1.6 0-2.9-1-2.9-2.8 0-1.8 1.3-2.8 2.9-2.8.9 0 1.6.4 1.9.7l-.2.9c-.4-.8-1-1.1-1.7-1.1s-1.4.6-1.4 1.9c0 1.8.8 2.6 1.7 2.6.7 0 1.3-.3 1.7-1l.2.2c-.3.7-1 1.4-2.2 1.4M114.1 49.6c-1.6 0-2.9-1-2.9-2.8 0-1.8 1.3-2.8 2.9-2.8.9 0 1.6.4 1.9.7l-.2.9c-.4-.8-1-1.1-1.7-1.1s-1.4.6-1.4 1.9c0 1.8.8 2.6 1.7 2.6.7 0 1.3-.3 1.7-1l.2.2c-.3.7-1 1.4-2.2 1.4M125.7 49.6c-1.4 0-2-.2-2.6-1l-1.2-1.7h-.4v2.6h-1.3v-5.2l1.3-.2v2.3c.7-.1 1.4-.3 1.6-.9.4-1.1.6-1.3 1.1-1.4H125.1l-.1.6a1 1 0 0 0-.5-.2h-.1c-.4.1-.5.3-.8 1-.2.5-.5.7-.6.8l1.2 1.8c.5.6 1 1 1.5 1.1v.4zM132 49.5v-4.1l-2.2 4.1h-1.2v-5.2l1.3-.2v4.2l2.1-4h1.3v5.2zM140.5 49.5v-4.1l-2.1 4.1h-1.3v-5.2l1.3-.2v4.2l2.1-4.1h1.3v5.2h-1.3zm-1-5.5c-.6 0-1.1-.4-1.3-.7l.1-.1c.3.2.7.3 1.2.3s.9-.1 1.2-.3l.1.1c-.3.3-.7.7-1.3.7M151 49.5v-4.8h-2c0 3.5-.1 4.9-1.2 4.9-.4 0-.8-.2-1.1-.4l.4-.5c.2.3.5.4.7.4.4 0 .7-.2.7-4.8h3.8v5.2H151zM157.4 46.7c.1 1.6.9 2.2 1.7 2.2.9 0 1.4-.4 1.7-1l.2.1c-.3.8-.9 1.5-2.1 1.5-1.6 0-2.9-1-2.9-2.8 0-1.8 1.1-2.8 2.7-2.8 1.3 0 2.4.9 2.4 2.7h-3.7zm.3-3.1a.6.6 0 0 1-.6-.6c0-.3.3-.6.6-.6s.6.3.6.6-.3.6-.6.6m.9.9c-.6 0-1.2.6-1.2 1.9h2.3c0-1.4-.5-1.9-1.1-1.9m1-.9a.6.6 0 0 1-.6-.6c0-.3.3-.6.6-.6s.6.3.6.6-.3.6-.6.6M168.2 49.5v-2.7h-2.1v2.7h-1.3v-5.2l1.3-.2v2.3h2.1v-2.1l1.3-.2v5.4zM.5 32.3v-1.5c1.8 0 2.9-.3 3.3-1 .4-.6.7-2.3.7-4.9V8.2c0-2.7-.2-4.3-.6-4.9-.4-.6-1.5-1-3.3-1V.8h14.3v1.5c-1.8 0-2.9.3-3.3 1-.6.7-.8 2.3-.8 4.9v16.6c0 2.5.2 4 .7 4.5.5.5 2 .7 4.6.7 3 0 5-.7 6-2.1.5-.7 1.1-2.1 1.9-4.2l1.7.3-.8 4.5a15 15 0 0 1-.9 3.6H.5zM36.8 8.2v16.6c0 2.7.2 4.3.6 4.9.4.6 1.5 1 3.3 1v1.5H26.5v-1.5c1.8 0 2.9-.3 3.3-1 .4-.6.7-2.3.7-4.9V8.2c0-2.7-.2-4.3-.6-4.9-.4-.6-1.5-1-3.3-1V.8h14.3v1.5c-1.8 0-2.9.3-3.3 1-.5.7-.8 2.3-.8 4.9M41.7.8h8.4l18.7 21.8.1-8.5-.1-5.5-.3-3.4c-.1-1.1-.6-1.8-1.3-2.2-.7-.4-1.8-.6-3.4-.6V.8h12v1.5c-2.3 0-3.6.8-3.8 2.5a86 86 0 0 0-.3 3.6l-.1 5.6v18.6h-2.9L49.3 9l-.1 10 .1 5.5.3 3.4c.1 1.1.6 1.8 1.3 2.2.7.4 1.8.6 3.4.6v1.5h-12v-1.5c2.3 0 3.6-.8 3.8-2.5l.3-4.3.1-4.9V9.4l-.1-3.8c0-.6-.2-1.1-.6-1.6-.9-1.1-2.2-1.7-4.1-1.7V.8zM94 0a15 15 0 0 1 11.1 4.5c3 3 4.5 6.9 4.5 11.5 0 5.1-1.6 9.2-4.7 12.3a16.3 16.3 0 0 1-12 4.7c-4.7 0-8.5-1.5-11.4-4.6-3-3.1-4.5-6.9-4.5-11.4 0-4.4 1.4-8.2 4.1-11.4A16 16 0 0 1 94 0m8.4 17.6c0-4.9-.8-8.7-2.5-11.4-1.6-2.7-4-4-7.1-4-2.6 0-4.6 1.2-6.2 3.6a17.7 17.7 0 0 0-2.4 9.9c0 4.4.8 8 2.5 10.8 1.8 3 4.2 4.4 7.3 4.4a7 7 0 0 0 6.1-3.3c1.5-2.3 2.3-5.6 2.3-10M121.9 18.6v6.2c0 2.7.2 4.3.6 4.9.4.6 1.5 1 3.3 1v1.5h-14.3v-1.5c1.8 0 2.9-.3 3.3-1 .4-.6.7-2.3.7-4.9V8.2c0-2.7-.2-4.3-.6-4.9-.4-.6-1.5-1-3.3-1V.8h14.3c4.1 0 7.1.8 8.8 2.3a7 7 0 0 1 2.3 5.6 8 8 0 0 1-1.7 5.1c-1 1.2-2.5 2.2-4.6 3l4.4 7.7a64.2 64.2 0 0 0 4.6 6.1c.4.3.9.5 1.5.7l-.1 1.5h-1.8c-4.3 0-7.4-1.3-9.3-4-.6-1-2.1-3.7-4.3-8.1a6 6 0 0 0-1.1-1.6c-.4-.3-1-.4-1.8-.4h-.9zm0-13.7v11.9h1.8c2 0 3.6-.7 4.8-2a8 8 0 0 0 1.8-5.4c0-2.2-.7-3.9-2-5.1a6 6 0 0 0-4.1-1.5c-1.1 0-1.8.1-2.1.3l-.2 1.8M162.5.8h12v1.5c-2.3 0-3.6.6-3.8 1.9l-.4 4.9-.1 4.9v4.3c0 5.1-1.2 8.9-3.7 11.4-2.1 2.2-5 3.3-8.8 3.3-5.3 0-8.9-1.7-10.8-5-1.2-2-1.8-5-1.8-8.9V8.2c0-2.7-.2-4.3-.6-4.9-.4-.6-1.5-1-3.3-1V.8h14.3v1.5c-1.8 0-2.9.3-3.3 1-.4.6-.7 2.3-.7 4.9v10c0 3.5.5 6.1 1.4 8a6.6 6.6 0 0 0 6.3 3.8 7 7 0 0 0 6.8-4.1 20 20 0 0 0 1.6-8.6v-3.2l-.1-5.5-.3-3.5c-.1-1.2-.6-1.9-1.5-2.3-.9-.3-1.9-.5-3.2-.5V.8zM175.2 23.6l1.7-.6c.6 1.9 1.5 3.5 2.7 4.9 1.7 2 3.6 2.9 5.7 2.9 1.5 0 2.8-.5 3.7-1.5.9-1 1.3-2.2 1.3-3.7 0-1.6-.4-2.9-1.3-3.9s-2.2-1.8-4.2-2.7c-3.3-1.4-5.6-3-6.9-4.7a7.8 7.8 0 0 1-1.6-4.9c0-2.7 1-5 2.9-6.8 1.9-1.8 4.6-2.7 7.9-2.7l2.8.2 3.7 1.1 1 6.8-1.8.3c-.6-1.9-1.3-3.3-2-4.2a5.4 5.4 0 0 0-4.5-2.1c-1.5 0-2.6.5-3.4 1.4-.8.9-1.3 2.1-1.3 3.5 0 2.3 2.3 4.5 6.8 6.4 2.3 1 4 2.1 5.2 3.3a8.7 8.7 0 0 1 2.3 6.1c0 2.9-1 5.3-3.1 7.2a12 12 0 0 1-8.3 2.9 15 15 0 0 1-3.7-.5c-1.2-.3-2.6-.8-4.1-1.4l-.9-4.2-.6-3.1M198 23.6l1.7-.6c.6 1.9 1.5 3.5 2.7 4.9 1.7 2 3.6 2.9 5.7 2.9 1.6 0 2.8-.5 3.7-1.5.9-1 1.3-2.2 1.3-3.7 0-1.6-.4-2.9-1.3-3.9s-2.2-1.8-4.2-2.7c-3.3-1.4-5.6-3-6.9-4.7a7.8 7.8 0 0 1-1.6-4.9c0-2.7 1-5 2.9-6.8 1.9-1.8 4.6-2.7 7.9-2.7l2.8.2 3.7 1.1 1 6.8-1.8.3c-.6-1.9-1.3-3.3-2-4.2a5.4 5.4 0 0 0-4.5-2.1c-1.5 0-2.6.5-3.4 1.4-.8.9-1.3 2.1-1.3 3.5 0 2.3 2.3 4.5 6.8 6.4 2.3 1 4 2.1 5.2 3.3a8.7 8.7 0 0 1 2.3 6.1c0 2.9-1 5.3-3.1 7.2a12 12 0 0 1-8.3 2.9 15 15 0 0 1-3.7-.5c-1.2-.3-2.6-.8-4.1-1.4l-.9-4.2-.6-3.1M238 0a15 15 0 0 1 11.1 4.5c3 3 4.5 6.9 4.5 11.5 0 5.1-1.6 9.2-4.7 12.3a16.3 16.3 0 0 1-12 4.7c-4.7 0-8.5-1.5-11.4-4.6a16.1 16.1 0 0 1-4.4-11.4c0-4.4 1.4-8.2 4.1-11.4 3-3.7 7.3-5.6 12.8-5.6m8.3 17.6c0-4.9-.8-8.7-2.5-11.4-1.6-2.7-4-4-7.1-4-2.6 0-4.6 1.2-6.2 3.6a17.7 17.7 0 0 0-2.4 9.9c0 4.4.8 8 2.5 10.8 1.8 3 4.2 4.4 7.3 4.4a7 7 0 0 0 6.1-3.3c1.6-2.3 2.3-5.6 2.3-10"/></svg>